<?xml version="1.0" encoding="utf-8"?>
<!DOCTYPE svg PUBLIC "-//W3C//DTD SVG 20010904//EN" "http://www.w3.org/TR/2001/REC-SVG-20010904/DTD/svg10.dtd">
<svg xmlns="http://www.w3.org/2000/svg" xml:space="preserve" xmlns:xlink="http://www.w3.org/1999/xlink" width="984" height="984" viewBox="0 0 984 984">
<defs>
<mask id="qrmask"><g fill="#ffffff">
<g transform="translate(240,48) scale(4)"><rect width="6" height="6"/></g>
<g transform="translate(264,48) scale(4)"><rect width="6" height="6"/></g>
<g transform="translate(312,48) scale(4)"><rect width="6" height="6"/></g>
<g transform="translate(336,48) scale(4)"><rect width="6" height="6"/></g>
<g transform="translate(384,48) scale(4)"><rect width="6" height="6"/></g>
<g transform="translate(432,48) scale(4)"><rect width="6" height="6"/></g>
<g transform="translate(456,48) scale(4)"><rect width="6" height="6"/></g>
<g transform="translate(504,48) scale(4)"><rect width="6" height="6"/></g>
<g transform="translate(528,48) scale(4)"><rect width="6" height="6"/></g>
<g transform="translate(552,48) scale(4)"><rect width="6" height="6"/></g>
<g transform="translate(576,48) scale(4)"><rect width="6" height="6"/></g>
<g transform="translate(624,48) scale(4)"><rect width="6" height="6"/></g>
<g transform="translate(648,48) scale(4)"><rect width="6" height="6"/></g>
<g transform="translate(672,48) scale(4)"><rect width="6" height="6"/></g>
<g transform="translate(720,48) scale(4)"><rect width="6" height="6"/></g>
<g transform="translate(240,72) scale(4)"><rect width="6" height="6"/></g>
<g transform="translate(264,72) scale(4)"><rect width="6" height="6"/></g>
<g transform="translate(312,72) scale(4)"><rect width="6" height="6"/></g>
<g transform="translate(336,72) scale(4)"><rect width="6" height="6"/></g>
<g transform="translate(456,72) scale(4)"><rect width="6" height="6"/></g>
<g transform="translate(528,72) scale(4)"><rect width="6" height="6"/></g>
<g transform="translate(576,72) scale(4)"><rect width="6" height="6"/></g>
<g transform="translate(648,72) scale(4)"><rect width="6" height="6"/></g>
<g transform="translate(672,72) scale(4)"><rect width="6" height="6"/></g>
<g transform="translate(696,72) scale(4)"><rect width="6" height="6"/></g>
<g transform="translate(240,96) scale(4)"><rect width="6" height="6"/></g>
<g transform="translate(264,96) scale(4)"><rect width="6" height="6"/></g>
<g transform="translate(384,96) scale(4)"><rect width="6" height="6"/></g>
<g transform="translate(408,96) scale(4)"><rect width="6" height="6"/></g>
<g transform="translate(456,96) scale(4)"><rect width="6" height="6"/></g>
<g transform="translate(576,96) scale(4)"><rect width="6" height="6"/></g>
<g transform="translate(600,96) scale(4)"><rect width="6" height="6"/></g>
<g transform="translate(624,96) scale(4)"><rect width="6" height="6"/></g>
<g transform="translate(672,96) scale(4)"><rect width="6" height="6"/></g>
<g transform="translate(696,96) scale(4)"><rect width="6" height="6"/></g>
<g transform="translate(264,120) scale(4)"><rect width="6" height="6"/></g>
<g transform="translate(360,120) scale(4)"><rect width="6" height="6"/></g>
<g transform="translate(456,120) scale(4)"><rect width="6" height="6"/></g>
<g transform="translate(480,120) scale(4)"><rect width="6" height="6"/></g>
<g transform="translate(504,120) scale(4)"><rect width="6" height="6"/></g>
<g transform="translate(528,120) scale(4)"><rect width="6" height="6"/></g>
<g transform="translate(648,120) scale(4)"><rect width="6" height="6"/></g>
<g transform="translate(672,120) scale(4)"><rect width="6" height="6"/></g>
<g transform="translate(696,120) scale(4)"><rect width="6" height="6"/></g>
<g transform="translate(720,120) scale(4)"><rect width="6" height="6"/></g>
<g transform="translate(264,144) scale(4)"><rect width="6" height="6"/></g>
<g transform="translate(288,144) scale(4)"><rect width="6" height="6"/></g>
<g transform="translate(312,144) scale(4)"><rect width="6" height="6"/></g>
<g transform="translate(336,144) scale(4)"><rect width="6" height="6"/></g>
<g transform="translate(552,144) scale(4)"><rect width="6" height="6"/></g>
<g transform="translate(576,144) scale(4)"><rect width="6" height="6"/></g>
<g transform="translate(600,144) scale(4)"><rect width="6" height="6"/></g>
<g transform="translate(648,144) scale(4)"><rect width="6" height="6"/></g>
<g transform="translate(720,144) scale(4)"><rect width="6" height="6"/></g>
<g transform="translate(240,168) scale(4)"><rect width="6" height="6"/></g>
<g transform="translate(312,168) scale(4)"><rect width="6" height="6"/></g>
<g transform="translate(336,168) scale(4)"><rect width="6" height="6"/></g>
<g transform="translate(456,168) scale(4)"><rect width="6" height="6"/></g>
<g transform="translate(480,168) scale(4)"><rect width="6" height="6"/></g>
<g transform="translate(504,168) scale(4)"><rect width="6" height="6"/></g>
<g transform="translate(528,168) scale(4)"><rect width="6" height="6"/></g>
<g transform="translate(576,168) scale(4)"><rect width="6" height="6"/></g>
<g transform="translate(600,168) scale(4)"><rect width="6" height="6"/></g>
<g transform="translate(624,168) scale(4)"><rect width="6" height="6"/></g>
<g transform="translate(648,168) scale(4)"><rect width="6" height="6"/></g>
<g transform="translate(672,168) scale(4)"><rect width="6" height="6"/></g>
<g transform="translate(696,168) scale(4)"><rect width="6" height="6"/></g>
<g transform="translate(720,168) scale(4)"><rect width="6" height="6"/></g>
<g transform="translate(240,192) scale(4)"><rect width="6" height="6"/></g>
<g transform="translate(288,192) scale(4)"><rect width="6" height="6"/></g>
<g transform="translate(336,192) scale(4)"><rect width="6" height="6"/></g>
<g transform="translate(384,192) scale(4)"><rect width="6" height="6"/></g>
<g transform="translate(432,192) scale(4)"><rect width="6" height="6"/></g>
<g transform="translate(480,192) scale(4)"><rect width="6" height="6"/></g>
<g transform="translate(528,192) scale(4)"><rect width="6" height="6"/></g>
<g transform="translate(576,192) scale(4)"><rect width="6" height="6"/></g>
<g transform="translate(624,192) scale(4)"><rect width="6" height="6"/></g>
<g transform="translate(672,192) scale(4)"><rect width="6" height="6"/></g>
<g transform="translate(720,192) scale(4)"><rect width="6" height="6"/></g>
<g transform="translate(240,216) scale(4)"><rect width="6" height="6"/></g>
<g transform="translate(312,216) scale(4)"><rect width="6" height="6"/></g>
<g transform="translate(336,216) scale(4)"><rect width="6" height="6"/></g>
<g transform="translate(384,216) scale(4)"><rect width="6" height="6"/></g>
<g transform="translate(504,216) scale(4)"><rect width="6" height="6"/></g>
<g transform="translate(552,216) scale(4)"><rect width="6" height="6"/></g>
<g transform="translate(576,216) scale(4)"><rect width="6" height="6"/></g>
<g transform="translate(600,216) scale(4)"><rect width="6" height="6"/></g>
<g transform="translate(624,216) scale(4)"><rect width="6" height="6"/></g>
<g transform="translate(672,216) scale(4)"><rect width="6" height="6"/></g>
<g transform="translate(720,216) scale(4)"><rect width="6" height="6"/></g>
<g transform="translate(96,240) scale(4)"><rect width="6" height="6"/></g>
<g transform="translate(120,240) scale(4)"><rect width="6" height="6"/></g>
<g transform="translate(144,240) scale(4)"><rect width="6" height="6"/></g>
<g transform="translate(192,240) scale(4)"><rect width="6" height="6"/></g>
<g transform="translate(240,240) scale(4)"><rect width="6" height="6"/></g>
<g transform="translate(264,240) scale(4)"><rect width="6" height="6"/></g>
<g transform="translate(312,240) scale(4)"><rect width="6" height="6"/></g>
<g transform="translate(384,240) scale(4)"><rect width="6" height="6"/></g>
<g transform="translate(408,240) scale(4)"><rect width="6" height="6"/></g>
<g transform="translate(480,240) scale(4)"><rect width="6" height="6"/></g>
<g transform="translate(504,240) scale(4)"><rect width="6" height="6"/></g>
<g transform="translate(552,240) scale(4)"><rect width="6" height="6"/></g>
<g transform="translate(600,240) scale(4)"><rect width="6" height="6"/></g>
<g transform="translate(744,240) scale(4)"><rect width="6" height="6"/></g>
<g transform="translate(768,240) scale(4)"><rect width="6" height="6"/></g>
<g transform="translate(792,240) scale(4)"><rect width="6" height="6"/></g>
<g transform="translate(864,240) scale(4)"><rect width="6" height="6"/></g>
<g transform="translate(888,240) scale(4)"><rect width="6" height="6"/></g>
<g transform="translate(912,240) scale(4)"><rect width="6" height="6"/></g>
<g transform="translate(48,264) scale(4)"><rect width="6" height="6"/></g>
<g transform="translate(144,264) scale(4)"><rect width="6" height="6"/></g>
<g transform="translate(168,264) scale(4)"><rect width="6" height="6"/></g>
<g transform="translate(216,264) scale(4)"><rect width="6" height="6"/></g>
<g transform="translate(264,264) scale(4)"><rect width="6" height="6"/></g>
<g transform="translate(312,264) scale(4)"><rect width="6" height="6"/></g>
<g transform="translate(336,264) scale(4)"><rect width="6" height="6"/></g>
<g transform="translate(360,264) scale(4)"><rect width="6" height="6"/></g>
<g transform="translate(408,264) scale(4)"><rect width="6" height="6"/></g>
<g transform="translate(432,264) scale(4)"><rect width="6" height="6"/></g>
<g transform="translate(504,264) scale(4)"><rect width="6" height="6"/></g>
<g transform="translate(528,264) scale(4)"><rect width="6" height="6"/></g>
<g transform="translate(552,264) scale(4)"><rect width="6" height="6"/></g>
<g transform="translate(792,264) scale(4)"><rect width="6" height="6"/></g>
<g transform="translate(864,264) scale(4)"><rect width="6" height="6"/></g>
<g transform="translate(888,264) scale(4)"><rect width="6" height="6"/></g>
<g transform="translate(48,288) scale(4)"><rect width="6" height="6"/></g>
<g transform="translate(144,288) scale(4)"><rect width="6" height="6"/></g>
<g transform="translate(168,288) scale(4)"><rect width="6" height="6"/></g>
<g transform="translate(192,288) scale(4)"><rect width="6" height="6"/></g>
<g transform="translate(264,288) scale(4)"><rect width="6" height="6"/></g>
<g transform="translate(288,288) scale(4)"><rect width="6" height="6"/></g>
<g transform="translate(312,288) scale(4)"><rect width="6" height="6"/></g>
<g transform="translate(336,288) scale(4)"><rect width="6" height="6"/></g>
<g transform="translate(360,288) scale(4)"><rect width="6" height="6"/></g>
<g transform="translate(384,288) scale(4)"><rect width="6" height="6"/></g>
<g transform="translate(408,288) scale(4)"><rect width="6" height="6"/></g>
<g transform="translate(528,288) scale(4)"><rect width="6" height="6"/></g>
<g transform="translate(552,288) scale(4)"><rect width="6" height="6"/></g>
<g transform="translate(648,288) scale(4)"><rect width="6" height="6"/></g>
<g transform="translate(672,288) scale(4)"><rect width="6" height="6"/></g>
<g transform="translate(696,288) scale(4)"><rect width="6" height="6"/></g>
<g transform="translate(768,288) scale(4)"><rect width="6" height="6"/></g>
<g transform="translate(792,288) scale(4)"><rect width="6" height="6"/></g>
<g transform="translate(864,288) scale(4)"><rect width="6" height="6"/></g>
<g transform="translate(888,288) scale(4)"><rect width="6" height="6"/></g>
<g transform="translate(912,288) scale(4)"><rect width="6" height="6"/></g>
<g transform="translate(120,312) scale(4)"><rect width="6" height="6"/></g>
<g transform="translate(144,312) scale(4)"><rect width="6" height="6"/></g>
<g transform="translate(240,312) scale(4)"><rect width="6" height="6"/></g>
<g transform="translate(288,312) scale(4)"><rect width="6" height="6"/></g>
<g transform="translate(360,312) scale(4)"><rect width="6" height="6"/></g>
<g transform="translate(456,312) scale(4)"><rect width="6" height="6"/></g>
<g transform="translate(480,312) scale(4)"><rect width="6" height="6"/></g>
<g transform="translate(504,312) scale(4)"><rect width="6" height="6"/></g>
<g transform="translate(624,312) scale(4)"><rect width="6" height="6"/></g>
<g transform="translate(696,312) scale(4)"><rect width="6" height="6"/></g>
<g transform="translate(720,312) scale(4)"><rect width="6" height="6"/></g>
<g transform="translate(768,312) scale(4)"><rect width="6" height="6"/></g>
<g transform="translate(816,312) scale(4)"><rect width="6" height="6"/></g>
<g transform="translate(888,312) scale(4)"><rect width="6" height="6"/></g>
<g transform="translate(912,312) scale(4)"><rect width="6" height="6"/></g>
<g transform="translate(96,336) scale(4)"><rect width="6" height="6"/></g>
<g transform="translate(168,336) scale(4)"><rect width="6" height="6"/></g>
<g transform="translate(192,336) scale(4)"><rect width="6" height="6"/></g>
<g transform="translate(216,336) scale(4)"><rect width="6" height="6"/></g>
<g transform="translate(264,336) scale(4)"><rect width="6" height="6"/></g>
<g transform="translate(312,336) scale(4)"><rect width="6" height="6"/></g>
<g transform="translate(336,336) scale(4)"><rect width="6" height="6"/></g>
<g transform="translate(456,336) scale(4)"><rect width="6" height="6"/></g>
<g transform="translate(480,336) scale(4)"><rect width="6" height="6"/></g>
<g transform="translate(552,336) scale(4)"><rect width="6" height="6"/></g>
<g transform="translate(576,336) scale(4)"><rect width="6" height="6"/></g>
<g transform="translate(600,336) scale(4)"><rect width="6" height="6"/></g>
<g transform="translate(648,336) scale(4)"><rect width="6" height="6"/></g>
<g transform="translate(672,336) scale(4)"><rect width="6" height="6"/></g>
<g transform="translate(768,336) scale(4)"><rect width="6" height="6"/></g>
<g transform="translate(816,336) scale(4)"><rect width="6" height="6"/></g>
<g transform="translate(864,336) scale(4)"><rect width="6" height="6"/></g>
<g transform="translate(912,336) scale(4)"><rect width="6" height="6"/></g>
<g transform="translate(48,360) scale(4)"><rect width="6" height="6"/></g>
<g transform="translate(72,360) scale(4)"><rect width="6" height="6"/></g>
<g transform="translate(168,360) scale(4)"><rect width="6" height="6"/></g>
<g transform="translate(240,360) scale(4)"><rect width="6" height="6"/></g>
<g transform="translate(264,360) scale(4)"><rect width="6" height="6"/></g>
<g transform="translate(288,360) scale(4)"><rect width="6" height="6"/></g>
<g transform="translate(312,360) scale(4)"><rect width="6" height="6"/></g>
<g transform="translate(384,360) scale(4)"><rect width="6" height="6"/></g>
<g transform="translate(432,360) scale(4)"><rect width="6" height="6"/></g>
<g transform="translate(456,360) scale(4)"><rect width="6" height="6"/></g>
<g transform="translate(528,360) scale(4)"><rect width="6" height="6"/></g>
<g transform="translate(552,360) scale(4)"><rect width="6" height="6"/></g>
<g transform="translate(672,360) scale(4)"><rect width="6" height="6"/></g>
<g transform="translate(720,360) scale(4)"><rect width="6" height="6"/></g>
<g transform="translate(744,360) scale(4)"><rect width="6" height="6"/></g>
<g transform="translate(792,360) scale(4)"><rect width="6" height="6"/></g>
<g transform="translate(840,360) scale(4)"><rect width="6" height="6"/></g>
<g transform="translate(864,360) scale(4)"><rect width="6" height="6"/></g>
<g transform="translate(888,360) scale(4)"><rect width="6" height="6"/></g>
<g transform="translate(48,384) scale(4)"><rect width="6" height="6"/></g>
<g transform="translate(72,384) scale(4)"><rect width="6" height="6"/></g>
<g transform="translate(96,384) scale(4)"><rect width="6" height="6"/></g>
<g transform="translate(144,384) scale(4)"><rect width="6" height="6"/></g>
<g transform="translate(168,384) scale(4)"><rect width="6" height="6"/></g>
<g transform="translate(192,384) scale(4)"><rect width="6" height="6"/></g>
<g transform="translate(216,384) scale(4)"><rect width="6" height="6"/></g>
<g transform="translate(288,384) scale(4)"><rect width="6" height="6"/></g>
<g transform="translate(312,384) scale(4)"><rect width="6" height="6"/></g>
<g transform="translate(336,384) scale(4)"><rect width="6" height="6"/></g>
<g transform="translate(408,384) scale(4)"><rect width="6" height="6"/></g>
<g transform="translate(480,384) scale(4)"><rect width="6" height="6"/></g>
<g transform="translate(600,384) scale(4)"><rect width="6" height="6"/></g>
<g transform="translate(624,384) scale(4)"><rect width="6" height="6"/></g>
<g transform="translate(648,384) scale(4)"><rect width="6" height="6"/></g>
<g transform="translate(696,384) scale(4)"><rect width="6" height="6"/></g>
<g transform="translate(720,384) scale(4)"><rect width="6" height="6"/></g>
<g transform="translate(744,384) scale(4)"><rect width="6" height="6"/></g>
<g transform="translate(792,384) scale(4)"><rect width="6" height="6"/></g>
<g transform="translate(840,384) scale(4)"><rect width="6" height="6"/></g>
<g transform="translate(888,384) scale(4)"><rect width="6" height="6"/></g>
<g transform="translate(912,384) scale(4)"><rect width="6" height="6"/></g>
<g transform="translate(240,408) scale(4)"><rect width="6" height="6"/></g>
<g transform="translate(312,408) scale(4)"><rect width="6" height="6"/></g>
<g transform="translate(360,408) scale(4)"><rect width="6" height="6"/></g>
<g transform="translate(408,408) scale(4)"><rect width="6" height="6"/></g>
<g transform="translate(456,408) scale(4)"><rect width="6" height="6"/></g>
<g transform="translate(528,408) scale(4)"><rect width="6" height="6"/></g>
<g transform="translate(576,408) scale(4)"><rect width="6" height="6"/></g>
<g transform="translate(624,408) scale(4)"><rect width="6" height="6"/></g>
<g transform="translate(744,408) scale(4)"><rect width="6" height="6"/></g>
<g transform="translate(888,408) scale(4)"><rect width="6" height="6"/></g>
<g transform="translate(912,408) scale(4)"><rect width="6" height="6"/></g>
<g transform="translate(96,432) scale(4)"><rect width="6" height="6"/></g>
<g transform="translate(120,432) scale(4)"><rect width="6" height="6"/></g>
<g transform="translate(192,432) scale(4)"><rect width="6" height="6"/></g>
<g transform="translate(216,432) scale(4)"><rect width="6" height="6"/></g>
<g transform="translate(264,432) scale(4)"><rect width="6" height="6"/></g>
<g transform="translate(360,432) scale(4)"><rect width="6" height="6"/></g>
<g transform="translate(384,432) scale(4)"><rect width="6" height="6"/></g>
<g transform="translate(456,432) scale(4)"><rect width="6" height="6"/></g>
<g transform="translate(504,432) scale(4)"><rect width="6" height="6"/></g>
<g transform="translate(528,432) scale(4)"><rect width="6" height="6"/></g>
<g transform="translate(600,432) scale(4)"><rect width="6" height="6"/></g>
<g transform="translate(648,432) scale(4)"><rect width="6" height="6"/></g>
<g transform="translate(672,432) scale(4)"><rect width="6" height="6"/></g>
<g transform="translate(696,432) scale(4)"><rect width="6" height="6"/></g>
<g transform="translate(720,432) scale(4)"><rect width="6" height="6"/></g>
<g transform="translate(744,432) scale(4)"><rect width="6" height="6"/></g>
<g transform="translate(768,432) scale(4)"><rect width="6" height="6"/></g>
<g transform="translate(816,432) scale(4)"><rect width="6" height="6"/></g>
<g transform="translate(864,432) scale(4)"><rect width="6" height="6"/></g>
<g transform="translate(888,432) scale(4)"><rect width="6" height="6"/></g>
<g transform="translate(912,432) scale(4)"><rect width="6" height="6"/></g>
<g transform="translate(48,456) scale(4)"><rect width="6" height="6"/></g>
<g transform="translate(96,456) scale(4)"><rect width="6" height="6"/></g>
<g transform="translate(120,456) scale(4)"><rect width="6" height="6"/></g>
<g transform="translate(216,456) scale(4)"><rect width="6" height="6"/></g>
<g transform="translate(240,456) scale(4)"><rect width="6" height="6"/></g>
<g transform="translate(336,456) scale(4)"><rect width="6" height="6"/></g>
<g transform="translate(456,456) scale(4)"><rect width="6" height="6"/></g>
<g transform="translate(576,456) scale(4)"><rect width="6" height="6"/></g>
<g transform="translate(624,456) scale(4)"><rect width="6" height="6"/></g>
<g transform="translate(648,456) scale(4)"><rect width="6" height="6"/></g>
<g transform="translate(720,456) scale(4)"><rect width="6" height="6"/></g>
<g transform="translate(792,456) scale(4)"><rect width="6" height="6"/></g>
<g transform="translate(840,456) scale(4)"><rect width="6" height="6"/></g>
<g transform="translate(48,480) scale(4)"><rect width="6" height="6"/></g>
<g transform="translate(72,480) scale(4)"><rect width="6" height="6"/></g>
<g transform="translate(96,480) scale(4)"><rect width="6" height="6"/></g>
<g transform="translate(192,480) scale(4)"><rect width="6" height="6"/></g>
<g transform="translate(264,480) scale(4)"><rect width="6" height="6"/></g>
<g transform="translate(288,480) scale(4)"><rect width="6" height="6"/></g>
<g transform="translate(312,480) scale(4)"><rect width="6" height="6"/></g>
<g transform="translate(360,480) scale(4)"><rect width="6" height="6"/></g>
<g transform="translate(384,480) scale(4)"><rect width="6" height="6"/></g>
<g transform="translate(432,480) scale(4)"><rect width="6" height="6"/></g>
<g transform="translate(504,480) scale(4)"><rect width="6" height="6"/></g>
<g transform="translate(528,480) scale(4)"><rect width="6" height="6"/></g>
<g transform="translate(552,480) scale(4)"><rect width="6" height="6"/></g>
<g transform="translate(600,480) scale(4)"><rect width="6" height="6"/></g>
<g transform="translate(624,480) scale(4)"><rect width="6" height="6"/></g>
<g transform="translate(672,480) scale(4)"><rect width="6" height="6"/></g>
<g transform="translate(696,480) scale(4)"><rect width="6" height="6"/></g>
<g transform="translate(720,480) scale(4)"><rect width="6" height="6"/></g>
<g transform="translate(744,480) scale(4)"><rect width="6" height="6"/></g>
<g transform="translate(792,480) scale(4)"><rect width="6" height="6"/></g>
<g transform="translate(864,480) scale(4)"><rect width="6" height="6"/></g>
<g transform="translate(888,480) scale(4)"><rect width="6" height="6"/></g>
<g transform="translate(912,480) scale(4)"><rect width="6" height="6"/></g>
<g transform="translate(48,504) scale(4)"><rect width="6" height="6"/></g>
<g transform="translate(96,504) scale(4)"><rect width="6" height="6"/></g>
<g transform="translate(144,504) scale(4)"><rect width="6" height="6"/></g>
<g transform="translate(168,504) scale(4)"><rect width="6" height="6"/></g>
<g transform="translate(216,504) scale(4)"><rect width="6" height="6"/></g>
<g transform="translate(240,504) scale(4)"><rect width="6" height="6"/></g>
<g transform="translate(288,504) scale(4)"><rect width="6" height="6"/></g>
<g transform="translate(312,504) scale(4)"><rect width="6" height="6"/></g>
<g transform="translate(360,504) scale(4)"><rect width="6" height="6"/></g>
<g transform="translate(408,504) scale(4)"><rect width="6" height="6"/></g>
<g transform="translate(432,504) scale(4)"><rect width="6" height="6"/></g>
<g transform="translate(480,504) scale(4)"><rect width="6" height="6"/></g>
<g transform="translate(504,504) scale(4)"><rect width="6" height="6"/></g>
<g transform="translate(552,504) scale(4)"><rect width="6" height="6"/></g>
<g transform="translate(672,504) scale(4)"><rect width="6" height="6"/></g>
<g transform="translate(696,504) scale(4)"><rect width="6" height="6"/></g>
<g transform="translate(720,504) scale(4)"><rect width="6" height="6"/></g>
<g transform="translate(768,504) scale(4)"><rect width="6" height="6"/></g>
<g transform="translate(888,504) scale(4)"><rect width="6" height="6"/></g>
<g transform="translate(912,504) scale(4)"><rect width="6" height="6"/></g>
<g transform="translate(144,528) scale(4)"><rect width="6" height="6"/></g>
<g transform="translate(168,528) scale(4)"><rect width="6" height="6"/></g>
<g transform="translate(192,528) scale(4)"><rect width="6" height="6"/></g>
<g transform="translate(216,528) scale(4)"><rect width="6" height="6"/></g>
<g transform="translate(264,528) scale(4)"><rect width="6" height="6"/></g>
<g transform="translate(288,528) scale(4)"><rect width="6" height="6"/></g>
<g transform="translate(408,528) scale(4)"><rect width="6" height="6"/></g>
<g transform="translate(432,528) scale(4)"><rect width="6" height="6"/></g>
<g transform="translate(456,528) scale(4)"><rect width="6" height="6"/></g>
<g transform="translate(480,528) scale(4)"><rect width="6" height="6"/></g>
<g transform="translate(504,528) scale(4)"><rect width="6" height="6"/></g>
<g transform="translate(528,528) scale(4)"><rect width="6" height="6"/></g>
<g transform="translate(648,528) scale(4)"><rect width="6" height="6"/></g>
<g transform="translate(768,528) scale(4)"><rect width="6" height="6"/></g>
<g transform="translate(792,528) scale(4)"><rect width="6" height="6"/></g>
<g transform="translate(816,528) scale(4)"><rect width="6" height="6"/></g>
<g transform="translate(864,528) scale(4)"><rect width="6" height="6"/></g>
<g transform="translate(48,552) scale(4)"><rect width="6" height="6"/></g>
<g transform="translate(72,552) scale(4)"><rect width="6" height="6"/></g>
<g transform="translate(96,552) scale(4)"><rect width="6" height="6"/></g>
<g transform="translate(168,552) scale(4)"><rect width="6" height="6"/></g>
<g transform="translate(240,552) scale(4)"><rect width="6" height="6"/></g>
<g transform="translate(264,552) scale(4)"><rect width="6" height="6"/></g>
<g transform="translate(336,552) scale(4)"><rect width="6" height="6"/></g>
<g transform="translate(384,552) scale(4)"><rect width="6" height="6"/></g>
<g transform="translate(408,552) scale(4)"><rect width="6" height="6"/></g>
<g transform="translate(504,552) scale(4)"><rect width="6" height="6"/></g>
<g transform="translate(552,552) scale(4)"><rect width="6" height="6"/></g>
<g transform="translate(576,552) scale(4)"><rect width="6" height="6"/></g>
<g transform="translate(648,552) scale(4)"><rect width="6" height="6"/></g>
<g transform="translate(792,552) scale(4)"><rect width="6" height="6"/></g>
<g transform="translate(840,552) scale(4)"><rect width="6" height="6"/></g>
<g transform="translate(48,576) scale(4)"><rect width="6" height="6"/></g>
<g transform="translate(72,576) scale(4)"><rect width="6" height="6"/></g>
<g transform="translate(192,576) scale(4)"><rect width="6" height="6"/></g>
<g transform="translate(216,576) scale(4)"><rect width="6" height="6"/></g>
<g transform="translate(240,576) scale(4)"><rect width="6" height="6"/></g>
<g transform="translate(264,576) scale(4)"><rect width="6" height="6"/></g>
<g transform="translate(288,576) scale(4)"><rect width="6" height="6"/></g>
<g transform="translate(312,576) scale(4)"><rect width="6" height="6"/></g>
<g transform="translate(456,576) scale(4)"><rect width="6" height="6"/></g>
<g transform="translate(480,576) scale(4)"><rect width="6" height="6"/></g>
<g transform="translate(504,576) scale(4)"><rect width="6" height="6"/></g>
<g transform="translate(528,576) scale(4)"><rect width="6" height="6"/></g>
<g transform="translate(600,576) scale(4)"><rect width="6" height="6"/></g>
<g transform="translate(648,576) scale(4)"><rect width="6" height="6"/></g>
<g transform="translate(672,576) scale(4)"><rect width="6" height="6"/></g>
<g transform="translate(696,576) scale(4)"><rect width="6" height="6"/></g>
<g transform="translate(720,576) scale(4)"><rect width="6" height="6"/></g>
<g transform="translate(744,576) scale(4)"><rect width="6" height="6"/></g>
<g transform="translate(840,576) scale(4)"><rect width="6" height="6"/></g>
<g transform="translate(864,576) scale(4)"><rect width="6" height="6"/></g>
<g transform="translate(912,576) scale(4)"><rect width="6" height="6"/></g>
<g transform="translate(48,600) scale(4)"><rect width="6" height="6"/></g>
<g transform="translate(120,600) scale(4)"><rect width="6" height="6"/></g>
<g transform="translate(144,600) scale(4)"><rect width="6" height="6"/></g>
<g transform="translate(240,600) scale(4)"><rect width="6" height="6"/></g>
<g transform="translate(312,600) scale(4)"><rect width="6" height="6"/></g>
<g transform="translate(336,600) scale(4)"><rect width="6" height="6"/></g>
<g transform="translate(384,600) scale(4)"><rect width="6" height="6"/></g>
<g transform="translate(528,600) scale(4)"><rect width="6" height="6"/></g>
<g transform="translate(624,600) scale(4)"><rect width="6" height="6"/></g>
<g transform="translate(648,600) scale(4)"><rect width="6" height="6"/></g>
<g transform="translate(720,600) scale(4)"><rect width="6" height="6"/></g>
<g transform="translate(792,600) scale(4)"><rect width="6" height="6"/></g>
<g transform="translate(96,624) scale(4)"><rect width="6" height="6"/></g>
<g transform="translate(120,624) scale(4)"><rect width="6" height="6"/></g>
<g transform="translate(144,624) scale(4)"><rect width="6" height="6"/></g>
<g transform="translate(168,624) scale(4)"><rect width="6" height="6"/></g>
<g transform="translate(192,624) scale(4)"><rect width="6" height="6"/></g>
<g transform="translate(288,624) scale(4)"><rect width="6" height="6"/></g>
<g transform="translate(336,624) scale(4)"><rect width="6" height="6"/></g>
<g transform="translate(360,624) scale(4)"><rect width="6" height="6"/></g>
<g transform="translate(384,624) scale(4)"><rect width="6" height="6"/></g>
<g transform="translate(456,624) scale(4)"><rect width="6" height="6"/></g>
<g transform="translate(528,624) scale(4)"><rect width="6" height="6"/></g>
<g transform="translate(552,624) scale(4)"><rect width="6" height="6"/></g>
<g transform="translate(624,624) scale(4)"><rect width="6" height="6"/></g>
<g transform="translate(672,624) scale(4)"><rect width="6" height="6"/></g>
<g transform="translate(744,624) scale(4)"><rect width="6" height="6"/></g>
<g transform="translate(768,624) scale(4)"><rect width="6" height="6"/></g>
<g transform="translate(816,624) scale(4)"><rect width="6" height="6"/></g>
<g transform="translate(840,624) scale(4)"><rect width="6" height="6"/></g>
<g transform="translate(864,624) scale(4)"><rect width="6" height="6"/></g>
<g transform="translate(912,624) scale(4)"><rect width="6" height="6"/></g>
<g transform="translate(48,648) scale(4)"><rect width="6" height="6"/></g>
<g transform="translate(168,648) scale(4)"><rect width="6" height="6"/></g>
<g transform="translate(336,648) scale(4)"><rect width="6" height="6"/></g>
<g transform="translate(384,648) scale(4)"><rect width="6" height="6"/></g>
<g transform="translate(432,648) scale(4)"><rect width="6" height="6"/></g>
<g transform="translate(456,648) scale(4)"><rect width="6" height="6"/></g>
<g transform="translate(480,648) scale(4)"><rect width="6" height="6"/></g>
<g transform="translate(576,648) scale(4)"><rect width="6" height="6"/></g>
<g transform="translate(720,648) scale(4)"><rect width="6" height="6"/></g>
<g transform="translate(792,648) scale(4)"><rect width="6" height="6"/></g>
<g transform="translate(840,648) scale(4)"><rect width="6" height="6"/></g>
<g transform="translate(48,672) scale(4)"><rect width="6" height="6"/></g>
<g transform="translate(96,672) scale(4)"><rect width="6" height="6"/></g>
<g transform="translate(120,672) scale(4)"><rect width="6" height="6"/></g>
<g transform="translate(168,672) scale(4)"><rect width="6" height="6"/></g>
<g transform="translate(192,672) scale(4)"><rect width="6" height="6"/></g>
<g transform="translate(240,672) scale(4)"><rect width="6" height="6"/></g>
<g transform="translate(288,672) scale(4)"><rect width="6" height="6"/></g>
<g transform="translate(312,672) scale(4)"><rect width="6" height="6"/></g>
<g transform="translate(336,672) scale(4)"><rect width="6" height="6"/></g>
<g transform="translate(360,672) scale(4)"><rect width="6" height="6"/></g>
<g transform="translate(408,672) scale(4)"><rect width="6" height="6"/></g>
<g transform="translate(480,672) scale(4)"><rect width="6" height="6"/></g>
<g transform="translate(552,672) scale(4)"><rect width="6" height="6"/></g>
<g transform="translate(600,672) scale(4)"><rect width="6" height="6"/></g>
<g transform="translate(624,672) scale(4)"><rect width="6" height="6"/></g>
<g transform="translate(648,672) scale(4)"><rect width="6" height="6"/></g>
<g transform="translate(696,672) scale(4)"><rect width="6" height="6"/></g>
<g transform="translate(720,672) scale(4)"><rect width="6" height="6"/></g>
<g transform="translate(792,672) scale(4)"><rect width="6" height="6"/></g>
<g transform="translate(840,672) scale(4)"><rect width="6" height="6"/></g>
<g transform="translate(888,672) scale(4)"><rect width="6" height="6"/></g>
<g transform="translate(912,672) scale(4)"><rect width="6" height="6"/></g>
<g transform="translate(48,696) scale(4)"><rect width="6" height="6"/></g>
<g transform="translate(144,696) scale(4)"><rect width="6" height="6"/></g>
<g transform="translate(216,696) scale(4)"><rect width="6" height="6"/></g>
<g transform="translate(240,696) scale(4)"><rect width="6" height="6"/></g>
<g transform="translate(264,696) scale(4)"><rect width="6" height="6"/></g>
<g transform="translate(360,696) scale(4)"><rect width="6" height="6"/></g>
<g transform="translate(408,696) scale(4)"><rect width="6" height="6"/></g>
<g transform="translate(456,696) scale(4)"><rect width="6" height="6"/></g>
<g transform="translate(480,696) scale(4)"><rect width="6" height="6"/></g>
<g transform="translate(552,696) scale(4)"><rect width="6" height="6"/></g>
<g transform="translate(576,696) scale(4)"><rect width="6" height="6"/></g>
<g transform="translate(600,696) scale(4)"><rect width="6" height="6"/></g>
<g transform="translate(696,696) scale(4)"><rect width="6" height="6"/></g>
<g transform="translate(720,696) scale(4)"><rect width="6" height="6"/></g>
<g transform="translate(888,696) scale(4)"><rect width="6" height="6"/></g>
<g transform="translate(48,720) scale(4)"><rect width="6" height="6"/></g>
<g transform="translate(96,720) scale(4)"><rect width="6" height="6"/></g>
<g transform="translate(144,720) scale(4)"><rect width="6" height="6"/></g>
<g transform="translate(168,720) scale(4)"><rect width="6" height="6"/></g>
<g transform="translate(192,720) scale(4)"><rect width="6" height="6"/></g>
<g transform="translate(216,720) scale(4)"><rect width="6" height="6"/></g>
<g transform="translate(240,720) scale(4)"><rect width="6" height="6"/></g>
<g transform="translate(264,720) scale(4)"><rect width="6" height="6"/></g>
<g transform="translate(288,720) scale(4)"><rect width="6" height="6"/></g>
<g transform="translate(312,720) scale(4)"><rect width="6" height="6"/></g>
<g transform="translate(336,720) scale(4)"><rect width="6" height="6"/></g>
<g transform="translate(384,720) scale(4)"><rect width="6" height="6"/></g>
<g transform="translate(432,720) scale(4)"><rect width="6" height="6"/></g>
<g transform="translate(480,720) scale(4)"><rect width="6" height="6"/></g>
<g transform="translate(600,720) scale(4)"><rect width="6" height="6"/></g>
<g transform="translate(648,720) scale(4)"><rect width="6" height="6"/></g>
<g transform="translate(672,720) scale(4)"><rect width="6" height="6"/></g>
<g transform="translate(696,720) scale(4)"><rect width="6" height="6"/></g>
<g transform="translate(720,720) scale(4)"><rect width="6" height="6"/></g>
<g transform="translate(744,720) scale(4)"><rect width="6" height="6"/></g>
<g transform="translate(768,720) scale(4)"><rect width="6" height="6"/></g>
<g transform="translate(792,720) scale(4)"><rect width="6" height="6"/></g>
<g transform="translate(816,720) scale(4)"><rect width="6" height="6"/></g>
<g transform="translate(840,720) scale(4)"><rect width="6" height="6"/></g>
<g transform="translate(864,720) scale(4)"><rect width="6" height="6"/></g>
<g transform="translate(912,720) scale(4)"><rect width="6" height="6"/></g>
<g transform="translate(240,744) scale(4)"><rect width="6" height="6"/></g>
<g transform="translate(264,744) scale(4)"><rect width="6" height="6"/></g>
<g transform="translate(336,744) scale(4)"><rect width="6" height="6"/></g>
<g transform="translate(360,744) scale(4)"><rect width="6" height="6"/></g>
<g transform="translate(384,744) scale(4)"><rect width="6" height="6"/></g>
<g transform="translate(504,744) scale(4)"><rect width="6" height="6"/></g>
<g transform="translate(576,744) scale(4)"><rect width="6" height="6"/></g>
<g transform="translate(600,744) scale(4)"><rect width="6" height="6"/></g>
<g transform="translate(696,744) scale(4)"><rect width="6" height="6"/></g>
<g transform="translate(720,744) scale(4)"><rect width="6" height="6"/></g>
<g transform="translate(816,744) scale(4)"><rect width="6" height="6"/></g>
<g transform="translate(264,768) scale(4)"><rect width="6" height="6"/></g>
<g transform="translate(336,768) scale(4)"><rect width="6" height="6"/></g>
<g transform="translate(360,768) scale(4)"><rect width="6" height="6"/></g>
<g transform="translate(384,768) scale(4)"><rect width="6" height="6"/></g>
<g transform="translate(432,768) scale(4)"><rect width="6" height="6"/></g>
<g transform="translate(456,768) scale(4)"><rect width="6" height="6"/></g>
<g transform="translate(480,768) scale(4)"><rect width="6" height="6"/></g>
<g transform="translate(504,768) scale(4)"><rect width="6" height="6"/></g>
<g transform="translate(624,768) scale(4)"><rect width="6" height="6"/></g>
<g transform="translate(672,768) scale(4)"><rect width="6" height="6"/></g>
<g transform="translate(720,768) scale(4)"><rect width="6" height="6"/></g>
<g transform="translate(768,768) scale(4)"><rect width="6" height="6"/></g>
<g transform="translate(816,768) scale(4)"><rect width="6" height="6"/></g>
<g transform="translate(840,768) scale(4)"><rect width="6" height="6"/></g>
<g transform="translate(888,768) scale(4)"><rect width="6" height="6"/></g>
<g transform="translate(912,768) scale(4)"><rect width="6" height="6"/></g>
<g transform="translate(264,792) scale(4)"><rect width="6" height="6"/></g>
<g transform="translate(312,792) scale(4)"><rect width="6" height="6"/></g>
<g transform="translate(408,792) scale(4)"><rect width="6" height="6"/></g>
<g transform="translate(432,792) scale(4)"><rect width="6" height="6"/></g>
<g transform="translate(456,792) scale(4)"><rect width="6" height="6"/></g>
<g transform="translate(600,792) scale(4)"><rect width="6" height="6"/></g>
<g transform="translate(624,792) scale(4)"><rect width="6" height="6"/></g>
<g transform="translate(672,792) scale(4)"><rect width="6" height="6"/></g>
<g transform="translate(720,792) scale(4)"><rect width="6" height="6"/></g>
<g transform="translate(816,792) scale(4)"><rect width="6" height="6"/></g>
<g transform="translate(888,792) scale(4)"><rect width="6" height="6"/></g>
<g transform="translate(240,816) scale(4)"><rect width="6" height="6"/></g>
<g transform="translate(264,816) scale(4)"><rect width="6" height="6"/></g>
<g transform="translate(288,816) scale(4)"><rect width="6" height="6"/></g>
<g transform="translate(432,816) scale(4)"><rect width="6" height="6"/></g>
<g transform="translate(456,816) scale(4)"><rect width="6" height="6"/></g>
<g transform="translate(552,816) scale(4)"><rect width="6" height="6"/></g>
<g transform="translate(576,816) scale(4)"><rect width="6" height="6"/></g>
<g transform="translate(648,816) scale(4)"><rect width="6" height="6"/></g>
<g transform="translate(672,816) scale(4)"><rect width="6" height="6"/></g>
<g transform="translate(696,816) scale(4)"><rect width="6" height="6"/></g>
<g transform="translate(720,816) scale(4)"><rect width="6" height="6"/></g>
<g transform="translate(744,816) scale(4)"><rect width="6" height="6"/></g>
<g transform="translate(768,816) scale(4)"><rect width="6" height="6"/></g>
<g transform="translate(792,816) scale(4)"><rect width="6" height="6"/></g>
<g transform="translate(816,816) scale(4)"><rect width="6" height="6"/></g>
<g transform="translate(864,816) scale(4)"><rect width="6" height="6"/></g>
<g transform="translate(888,816) scale(4)"><rect width="6" height="6"/></g>
<g transform="translate(912,816) scale(4)"><rect width="6" height="6"/></g>
<g transform="translate(240,840) scale(4)"><rect width="6" height="6"/></g>
<g transform="translate(336,840) scale(4)"><rect width="6" height="6"/></g>
<g transform="translate(360,840) scale(4)"><rect width="6" height="6"/></g>
<g transform="translate(384,840) scale(4)"><rect width="6" height="6"/></g>
<g transform="translate(480,840) scale(4)"><rect width="6" height="6"/></g>
<g transform="translate(624,840) scale(4)"><rect width="6" height="6"/></g>
<g transform="translate(648,840) scale(4)"><rect width="6" height="6"/></g>
<g transform="translate(672,840) scale(4)"><rect width="6" height="6"/></g>
<g transform="translate(696,840) scale(4)"><rect width="6" height="6"/></g>
<g transform="translate(720,840) scale(4)"><rect width="6" height="6"/></g>
<g transform="translate(768,840) scale(4)"><rect width="6" height="6"/></g>
<g transform="translate(816,840) scale(4)"><rect width="6" height="6"/></g>
<g transform="translate(240,864) scale(4)"><rect width="6" height="6"/></g>
<g transform="translate(264,864) scale(4)"><rect width="6" height="6"/></g>
<g transform="translate(288,864) scale(4)"><rect width="6" height="6"/></g>
<g transform="translate(360,864) scale(4)"><rect width="6" height="6"/></g>
<g transform="translate(456,864) scale(4)"><rect width="6" height="6"/></g>
<g transform="translate(528,864) scale(4)"><rect width="6" height="6"/></g>
<g transform="translate(576,864) scale(4)"><rect width="6" height="6"/></g>
<g transform="translate(648,864) scale(4)"><rect width="6" height="6"/></g>
<g transform="translate(672,864) scale(4)"><rect width="6" height="6"/></g>
<g transform="translate(720,864) scale(4)"><rect width="6" height="6"/></g>
<g transform="translate(792,864) scale(4)"><rect width="6" height="6"/></g>
<g transform="translate(840,864) scale(4)"><rect width="6" height="6"/></g>
<g transform="translate(912,864) scale(4)"><rect width="6" height="6"/></g>
<g transform="translate(264,888) scale(4)"><rect width="6" height="6"/></g>
<g transform="translate(312,888) scale(4)"><rect width="6" height="6"/></g>
<g transform="translate(360,888) scale(4)"><rect width="6" height="6"/></g>
<g transform="translate(408,888) scale(4)"><rect width="6" height="6"/></g>
<g transform="translate(432,888) scale(4)"><rect width="6" height="6"/></g>
<g transform="translate(552,888) scale(4)"><rect width="6" height="6"/></g>
<g transform="translate(624,888) scale(4)"><rect width="6" height="6"/></g>
<g transform="translate(696,888) scale(4)"><rect width="6" height="6"/></g>
<g transform="translate(720,888) scale(4)"><rect width="6" height="6"/></g>
<g transform="translate(744,888) scale(4)"><rect width="6" height="6"/></g>
<g transform="translate(768,888) scale(4)"><rect width="6" height="6"/></g>
<g transform="translate(792,888) scale(4)"><rect width="6" height="6"/></g>
<g transform="translate(912,888) scale(4)"><rect width="6" height="6"/></g>
<g transform="translate(264,912) scale(4)"><rect width="6" height="6"/></g>
<g transform="translate(288,912) scale(4)"><rect width="6" height="6"/></g>
<g transform="translate(336,912) scale(4)"><rect width="6" height="6"/></g>
<g transform="translate(384,912) scale(4)"><rect width="6" height="6"/></g>
<g transform="translate(432,912) scale(4)"><rect width="6" height="6"/></g>
<g transform="translate(456,912) scale(4)"><rect width="6" height="6"/></g>
<g transform="translate(480,912) scale(4)"><rect width="6" height="6"/></g>
<g transform="translate(552,912) scale(4)"><rect width="6" height="6"/></g>
<g transform="translate(624,912) scale(4)"><rect width="6" height="6"/></g>
<g transform="translate(648,912) scale(4)"><rect width="6" height="6"/></g>
<g transform="translate(672,912) scale(4)"><rect width="6" height="6"/></g>
<g transform="translate(744,912) scale(4)"><rect width="6" height="6"/></g>
<g transform="translate(768,912) scale(4)"><rect width="6" height="6"/></g>
<g transform="translate(816,912) scale(4)"><rect width="6" height="6"/></g>
<g transform="translate(840,912) scale(4)"><rect width="6" height="6"/></g>
<g transform="translate(864,912) scale(4)"><rect width="6" height="6"/></g>
<g transform="translate(888,912) scale(4)"><rect width="6" height="6"/></g>
<g transform="translate(912,912) scale(4)"><rect width="6" height="6"/></g>
</g></mask></defs>
<rect x="0" y="0" width="984" height="984" mask="url(#qrmask)" fill="#000000" />
<g transform="translate(48,48)"  fill="#000000"><g transform="scale(12)"><path d="M0,0v14h14V0H0z M12,12H2V2h10V12z"/></g></g>
<g transform="translate(768,48)"  fill="#000000"><g transform="scale(12)"><path d="M0,0v14h14V0H0z M12,12H2V2h10V12z"/></g></g>
<g transform="translate(48,768)"  fill="#000000"><g transform="scale(12)"><path d="M0,0v14h14V0H0z M12,12H2V2h10V12z"/></g></g>
<g transform="translate(96,96)"  fill="#000000"><g transform="scale(12)"><rect width="6" height="6"/></g></g>
<g transform="translate(816,96)"  fill="#000000"><g transform="scale(12)"><rect width="6" height="6"/></g></g>
<g transform="translate(96,816)"  fill="#000000"><g transform="scale(12)"><rect width="6" height="6"/></g></g>
</svg>